<?xml version="1.0" encoding="utf-8"?>
<!-- Svg Vector Icons : http://www.onlinewebfonts.com/icon -->
<!DOCTYPE svg PUBLIC "-//W3C//DTD SVG 1.1//EN" "http://www.w3.org/Graphics/SVG/1.1/DTD/svg11.dtd">
<svg version="1.1" xmlns="http://www.w3.org/2000/svg" xmlns:xlink="http://www.w3.org/1999/xlink" x="0px" y="0px" viewBox="0 0 1000 1000" enable-background="new 0 0 1000 1000" xml:space="preserve">
<metadata> Svg Vector Icons : http://www.onlinewebfonts.com/icon </metadata>
<g><g transform="translate(0.000000,511.000000) scale(0.100000,-0.100000)"><path d="M420.7,2579.3c-265.5-269.6-320.7-332.9-320.7-384s298.2-357.4,2424.3-2473.4C4321.7-2065.2,4963-2692.2,4997.7-2692.2c36.8-2,614.8,561.7,2467.2,2401.9c1331.7,1323.5,2424.4,2426.4,2430.5,2450.9c6.2,24.5,6.2,61.3,0,81.7c-6.1,20.4-155.2,179.7-328.8,353.3L9250,2912.2L7160.6,824.8C5686-649.8,5056.9-1266.6,5014-1276.8c-55.2-12.3-155.2,85.8-2154.7,2083.3C1707.4,1958.4,757.7,2902,753.6,2902C747.4,2902,596.3,2757,420.7,2579.3z"/></g></g>
</svg>