# Blender v2.80 (sub 75) OBJ File: 'polytopia_Models.blend'
# www.blender.org
mtllib ocean_two_b.mtl
o Ocean_two_b_Cube.016
v -0.250000 -0.004734 0.250000
v -0.250000 0.455266 0.250000
v -0.250000 -0.004734 -0.250000
v -0.250000 0.455266 -0.250000
v 0.250000 -0.004734 0.250000
v 0.250000 0.455266 0.250000
v 0.250000 -0.004734 -0.250000
v 0.250000 0.455266 -0.250000
vn -1.0000 0.0000 0.0000
vn 1.0000 0.0000 0.0000
vn 0.0000 -1.0000 0.0000
vn 0.0000 1.0000 0.0000
usemtl OceanWater
s off
f 1//1 2//1 4//1 3//1
f 7//2 8//2 6//2 5//2
f 3//3 7//3 5//3 1//3
f 8//4 4//4 2//4 6//4
