# Blender v2.80 (sub 75) OBJ File: 'polytopia_Models.blend'
# www.blender.org
mtllib ocean_three.mtl
o Ocean_three_Cube.011
v -0.250000 -0.004734 0.250000
v -0.250000 0.455266 0.250000
v -0.250000 -0.004734 -0.250000
v -0.250000 0.455266 -0.250000
v 0.250000 -0.004734 0.250000
v 0.250000 0.455266 0.250000
v 0.250000 -0.004734 -0.250000
v 0.250000 0.455266 -0.250000
vn -1.0000 0.0000 0.0000
vn 1.0000 0.0000 0.0000
vn 0.0000 0.0000 1.0000
vn 0.0000 -1.0000 0.0000
vn 0.0000 1.0000 0.0000
usemtl OceanWater.004
s off
f 1//1 2//1 4//1 3//1
f 7//2 8//2 6//2 5//2
f 5//3 6//3 2//3 1//3
f 3//4 7//4 5//4 1//4
f 8//5 4//5 2//5 6//5
