<?xml version="1.0" encoding="utf-8"?>
<!-- Svg Vector Icons : http://www.onlinewebfonts.com/icon -->
<!DOCTYPE svg PUBLIC "-//W3C//DTD SVG 1.1//EN" "http://www.w3.org/Graphics/SVG/1.1/DTD/svg11.dtd">
<svg version="1.1" xmlns="http://www.w3.org/2000/svg" xmlns:xlink="http://www.w3.org/1999/xlink" x="0px" y="0px" viewBox="0 0 1000 1000" enable-background="new 0 0 1000 1000" xml:space="preserve">
<metadata> Svg Vector Icons : http://www.onlinewebfonts.com/icon </metadata>
<g><g transform="translate(0.000000,511.000000) scale(0.100000,-0.100000)"><path d="M7023.4,4998.4c-12.3-6.1-1104.6-1096.4-2425.7-2427.7C2756.1,718.8,2196.6,143,2198.6,106.2c0-34.7,622.7-673.8,2413.4-2472.6C6731.4-4493.9,7033.6-4790,7084.7-4790c51,0,116.4,55.1,387.9,326.7l328.7,326.7l-2101,2101c-2001,2003-2099,2103.1-2086.7,2158.2c10.2,42.9,626.8,671.7,2101,2148l2086.7,2086.7L7472.6,4684C7148,5006.6,7111.2,5033.1,7023.4,4998.4z"/></g></g>
</svg>