# Blender v2.80 (sub 75) OBJ File: 'polytopia_Models.blend'
# www.blender.org
mtllib tree_one.mtl
o Three_1_Cube.014
v -0.104066 1.968349 0.613062
v -0.104066 2.186026 0.613062
v -0.104066 1.968349 0.546614
v -0.104066 2.186026 0.546614
v -0.049438 1.968349 0.613062
v -0.049438 2.186026 0.613062
v -0.049438 1.968349 0.546614
v -0.049438 2.186026 0.546614
v -0.231238 2.183437 0.739602
v -0.079668 2.495533 0.581667
v -0.231238 2.183437 0.423732
v 0.071902 2.183437 0.739602
v 0.071902 2.183437 0.423732
v -0.538360 1.968349 0.647559
v -0.538360 2.186026 0.647559
v -0.538360 1.968349 0.581111
v -0.538360 2.186026 0.581111
v -0.483732 1.968349 0.647559
v -0.483732 2.186026 0.647559
v -0.483732 1.968349 0.581111
v -0.483732 2.186026 0.581111
v -0.665532 2.183437 0.774099
v -0.513962 2.495533 0.616164
v -0.665532 2.183437 0.458229
v -0.362391 2.183437 0.774099
v -0.362391 2.183437 0.458229
v 0.162903 1.968349 0.226710
v 0.162903 2.186026 0.226710
v 0.162903 1.968349 0.160262
v 0.162903 2.186026 0.160262
v 0.217530 1.968349 0.226710
v 0.217530 2.186026 0.226710
v 0.217530 1.968349 0.160262
v 0.217530 2.186026 0.160262
v 0.035730 2.183437 0.353250
v 0.187300 2.495533 0.195315
v 0.035730 2.183437 0.037380
v 0.338871 2.183437 0.353250
v 0.338871 2.183437 0.037380
v 0.652829 1.968349 0.639073
v 0.652829 2.186026 0.639073
v 0.652829 1.968349 0.572625
v 0.652829 2.186026 0.572625
v 0.707457 1.968349 0.639073
v 0.707457 2.186026 0.639073
v 0.707457 1.968349 0.572625
v 0.707457 2.186026 0.572625
v 0.525657 2.183437 0.765613
v 0.677227 2.495533 0.607678
v 0.525657 2.183437 0.449743
v 0.828797 2.183437 0.765613
v 0.828797 2.183437 0.449743
v 0.563291 1.968349 0.032930
v 0.563291 2.186026 0.032930
v 0.563291 1.968349 -0.033518
v 0.563291 2.186026 -0.033518
v 0.617919 1.968349 0.032930
v 0.617919 2.186026 0.032930
v 0.617919 1.968349 -0.033518
v 0.617919 2.186026 -0.033518
v 0.436119 2.183437 0.159470
v 0.587689 2.495533 0.001535
v 0.436119 2.183437 -0.156400
v 0.739260 2.183437 0.159470
v 0.739260 2.183437 -0.156400
v -0.521804 1.968349 -0.209843
v -0.521804 2.186026 -0.209843
v -0.521804 1.968349 -0.276291
v -0.521804 2.186026 -0.276291
v -0.467176 1.968349 -0.209843
v -0.467176 2.186026 -0.209843
v -0.467176 1.968349 -0.276291
v -0.467176 2.186026 -0.276291
v -0.648977 2.183437 -0.083303
v -0.497406 2.495533 -0.241238
v -0.648977 2.183437 -0.399173
v -0.345836 2.183437 -0.083303
v -0.345836 2.183437 -0.399173
v -0.370398 1.968349 -0.599380
v -0.370398 2.186026 -0.599380
v -0.370398 1.968349 -0.665828
v -0.370398 2.186026 -0.665828
v -0.315770 1.968349 -0.599380
v -0.315770 2.186026 -0.599380
v -0.315770 1.968349 -0.665828
v -0.315770 2.186026 -0.665828
v -0.497570 2.183437 -0.472839
v -0.346000 2.495533 -0.630775
v -0.497570 2.183437 -0.788710
v -0.194429 2.183437 -0.472839
v -0.194429 2.183437 -0.788710
v 0.292385 1.968349 -0.545733
v 0.292385 2.186026 -0.545733
v 0.292385 1.968349 -0.612181
v 0.292385 2.186026 -0.612181
v 0.347013 1.968349 -0.545733
v 0.347013 2.186026 -0.545733
v 0.347013 1.968349 -0.612181
v 0.347013 2.186026 -0.612181
v 0.165213 2.183437 -0.419193
v 0.316783 2.495533 -0.577128
v 0.165213 2.183437 -0.735063
v 0.468354 2.183437 -0.419193
v 0.468354 2.183437 -0.735063
v 0.011788 1.968349 -0.193451
v 0.011788 2.186026 -0.193451
v 0.011788 1.968349 -0.259899
v 0.011788 2.186026 -0.259899
v 0.066416 1.968349 -0.193451
v 0.066416 2.186026 -0.193451
v 0.066416 1.968349 -0.259899
v 0.066416 2.186026 -0.259899
v -0.115384 2.183437 -0.066910
v 0.036186 2.495533 -0.224846
v -0.115384 2.183437 -0.382781
v 0.187757 2.183437 -0.066910
v 0.187757 2.183437 -0.382781
v 0.725239 1.968349 -0.466118
v 0.725239 2.186026 -0.466118
v 0.725239 1.968349 -0.532565
v 0.725239 2.186026 -0.532565
v 0.779867 1.968349 -0.466118
v 0.779867 2.186026 -0.466118
v 0.779867 1.968349 -0.532565
v 0.779867 2.186026 -0.532565
v 0.598066 2.183437 -0.339577
v 0.749637 2.495533 -0.497512
v 0.598066 2.183437 -0.655448
v 0.901207 2.183437 -0.339577
v 0.901207 2.183437 -0.655448
vt 0.125000 0.500000
vt 0.375000 0.500000
vt 0.375000 0.750000
vt 0.125000 0.750000
vt 0.625000 0.500000
vt 0.875000 0.500000
vt 0.875000 0.750000
vt 0.625000 0.750000
vt 0.375000 0.000000
vt 0.625000 0.250000
vt 0.375000 0.250000
vt 0.625000 0.500000
vt 0.375000 0.500000
vt 0.625000 0.750000
vt 0.375000 0.750000
vt 0.625000 1.000000
vt 0.375000 1.000000
vt 0.125000 0.500000
vt 0.125000 0.750000
vt 0.375000 0.000000
vt 0.625000 0.000000
vt 0.625000 0.250000
vt 0.375000 0.250000
vt 0.625000 1.000000
vt 0.375000 1.000000
vt 0.125000 0.500000
vt 0.375000 0.500000
vt 0.375000 0.750000
vt 0.125000 0.750000
vt 0.625000 0.500000
vt 0.875000 0.500000
vt 0.875000 0.750000
vt 0.625000 0.750000
vt 0.375000 0.000000
vt 0.625000 0.250000
vt 0.375000 0.250000
vt 0.625000 0.500000
vt 0.375000 0.500000
vt 0.625000 0.750000
vt 0.375000 0.750000
vt 0.625000 1.000000
vt 0.375000 1.000000
vt 0.125000 0.500000
vt 0.125000 0.750000
vt 0.375000 0.000000
vt 0.625000 0.000000
vt 0.625000 0.250000
vt 0.375000 0.250000
vt 0.625000 1.000000
vt 0.375000 1.000000
vt 0.125000 0.500000
vt 0.375000 0.500000
vt 0.375000 0.750000
vt 0.125000 0.750000
vt 0.625000 0.500000
vt 0.875000 0.500000
vt 0.875000 0.750000
vt 0.625000 0.750000
vt 0.375000 0.000000
vt 0.625000 0.250000
vt 0.375000 0.250000
vt 0.625000 0.500000
vt 0.375000 0.500000
vt 0.625000 0.750000
vt 0.375000 0.750000
vt 0.625000 1.000000
vt 0.375000 1.000000
vt 0.125000 0.500000
vt 0.125000 0.750000
vt 0.375000 0.000000
vt 0.625000 0.000000
vt 0.625000 0.250000
vt 0.375000 0.250000
vt 0.625000 1.000000
vt 0.375000 1.000000
vt 0.125000 0.500000
vt 0.375000 0.500000
vt 0.375000 0.750000
vt 0.125000 0.750000
vt 0.625000 0.500000
vt 0.875000 0.500000
vt 0.875000 0.750000
vt 0.625000 0.750000
vt 0.375000 0.000000
vt 0.625000 0.250000
vt 0.375000 0.250000
vt 0.625000 0.500000
vt 0.375000 0.500000
vt 0.625000 0.750000
vt 0.375000 0.750000
vt 0.625000 1.000000
vt 0.375000 1.000000
vt 0.125000 0.500000
vt 0.125000 0.750000
vt 0.375000 0.000000
vt 0.625000 0.000000
vt 0.625000 0.250000
vt 0.375000 0.250000
vt 0.625000 1.000000
vt 0.375000 1.000000
vt 0.125000 0.500000
vt 0.375000 0.500000
vt 0.375000 0.750000
vt 0.125000 0.750000
vt 0.625000 0.500000
vt 0.875000 0.500000
vt 0.875000 0.750000
vt 0.625000 0.750000
vt 0.375000 0.000000
vt 0.625000 0.250000
vt 0.375000 0.250000
vt 0.625000 0.500000
vt 0.375000 0.500000
vt 0.625000 0.750000
vt 0.375000 0.750000
vt 0.625000 1.000000
vt 0.375000 1.000000
vt 0.125000 0.500000
vt 0.125000 0.750000
vt 0.375000 0.000000
vt 0.625000 0.000000
vt 0.625000 0.250000
vt 0.375000 0.250000
vt 0.625000 1.000000
vt 0.375000 1.000000
vt 0.125000 0.500000
vt 0.375000 0.500000
vt 0.375000 0.750000
vt 0.125000 0.750000
vt 0.625000 0.500000
vt 0.875000 0.500000
vt 0.875000 0.750000
vt 0.625000 0.750000
vt 0.375000 0.000000
vt 0.625000 0.250000
vt 0.375000 0.250000
vt 0.625000 0.500000
vt 0.375000 0.500000
vt 0.625000 0.750000
vt 0.375000 0.750000
vt 0.625000 1.000000
vt 0.375000 1.000000
vt 0.125000 0.500000
vt 0.125000 0.750000
vt 0.375000 0.000000
vt 0.625000 0.000000
vt 0.625000 0.250000
vt 0.375000 0.250000
vt 0.625000 1.000000
vt 0.375000 1.000000
vt 0.125000 0.500000
vt 0.375000 0.500000
vt 0.375000 0.750000
vt 0.125000 0.750000
vt 0.625000 0.500000
vt 0.875000 0.500000
vt 0.875000 0.750000
vt 0.625000 0.750000
vt 0.375000 0.000000
vt 0.625000 0.250000
vt 0.375000 0.250000
vt 0.625000 0.500000
vt 0.375000 0.500000
vt 0.625000 0.750000
vt 0.375000 0.750000
vt 0.625000 1.000000
vt 0.375000 1.000000
vt 0.125000 0.500000
vt 0.125000 0.750000
vt 0.375000 0.000000
vt 0.625000 0.000000
vt 0.625000 0.250000
vt 0.375000 0.250000
vt 0.625000 1.000000
vt 0.375000 1.000000
vt 0.125000 0.500000
vt 0.375000 0.500000
vt 0.375000 0.750000
vt 0.125000 0.750000
vt 0.625000 0.500000
vt 0.875000 0.500000
vt 0.875000 0.750000
vt 0.625000 0.750000
vt 0.375000 0.000000
vt 0.625000 0.250000
vt 0.375000 0.250000
vt 0.625000 0.500000
vt 0.375000 0.500000
vt 0.625000 0.750000
vt 0.375000 0.750000
vt 0.625000 1.000000
vt 0.375000 1.000000
vt 0.125000 0.500000
vt 0.125000 0.750000
vt 0.375000 0.000000
vt 0.625000 0.000000
vt 0.625000 0.250000
vt 0.375000 0.250000
vt 0.625000 1.000000
vt 0.375000 1.000000
vt 0.125000 0.500000
vt 0.375000 0.500000
vt 0.375000 0.750000
vt 0.125000 0.750000
vt 0.625000 0.500000
vt 0.875000 0.500000
vt 0.875000 0.750000
vt 0.625000 0.750000
vt 0.375000 0.000000
vt 0.625000 0.250000
vt 0.375000 0.250000
vt 0.625000 0.500000
vt 0.375000 0.500000
vt 0.625000 0.750000
vt 0.375000 0.750000
vt 0.625000 1.000000
vt 0.375000 1.000000
vt 0.125000 0.500000
vt 0.125000 0.750000
vt 0.375000 0.000000
vt 0.625000 0.000000
vt 0.625000 0.250000
vt 0.375000 0.250000
vt 0.625000 1.000000
vt 0.375000 1.000000
vt 0.125000 0.500000
vt 0.375000 0.500000
vt 0.375000 0.750000
vt 0.125000 0.750000
vt 0.625000 0.500000
vt 0.875000 0.500000
vt 0.875000 0.750000
vt 0.625000 0.750000
vt 0.375000 0.000000
vt 0.625000 0.250000
vt 0.375000 0.250000
vt 0.625000 0.500000
vt 0.375000 0.500000
vt 0.625000 0.750000
vt 0.375000 0.750000
vt 0.625000 1.000000
vt 0.375000 1.000000
vt 0.125000 0.500000
vt 0.125000 0.750000
vt 0.375000 0.000000
vt 0.625000 0.000000
vt 0.625000 0.250000
vt 0.375000 0.250000
vt 0.625000 1.000000
vt 0.375000 1.000000
vn 0.0000 -1.0000 0.0000
vn 0.0000 1.0000 0.0000
vn -0.8995 0.4369 0.0000
vn 0.0000 0.4515 -0.8923
vn 0.8995 0.4369 0.0000
vn 0.0000 0.4515 0.8923
vn -1.0000 0.0000 0.0000
vn 0.0000 0.0000 -1.0000
vn 1.0000 0.0000 0.0000
vn 0.0000 0.0000 1.0000
usemtl Levels.009
s off
f 3/1/1 7/2/1 5/3/1 1/4/1
f 8/5/2 4/6/2 2/7/2 6/8/2
f 9/9/3 10/10/3 11/11/3
f 11/11/4 10/12/4 13/13/4
f 13/13/5 10/14/5 12/15/5
f 12/15/6 10/16/6 9/17/6
f 11/18/1 13/13/1 12/15/1 9/19/1
usemtl wood.009
f 1/20/7 2/21/7 4/22/7 3/23/7
f 3/23/8 4/22/8 8/5/8 7/2/8
f 7/2/9 8/5/9 6/8/9 5/3/9
f 5/3/10 6/8/10 2/24/10 1/25/10
usemtl Levels
f 16/26/1 20/27/1 18/28/1 14/29/1
f 21/30/2 17/31/2 15/32/2 19/33/2
f 22/34/3 23/35/3 24/36/3
f 24/36/4 23/37/4 26/38/4
f 26/38/5 23/39/5 25/40/5
f 25/40/6 23/41/6 22/42/6
f 24/43/1 26/38/1 25/40/1 22/44/1
usemtl wood
f 14/45/7 15/46/7 17/47/7 16/48/7
f 16/48/8 17/47/8 21/30/8 20/27/8
f 20/27/9 21/30/9 19/33/9 18/28/9
f 18/28/10 19/33/10 15/49/10 14/50/10
usemtl Levels.001
f 29/51/1 33/52/1 31/53/1 27/54/1
f 34/55/2 30/56/2 28/57/2 32/58/2
f 35/59/3 36/60/3 37/61/3
f 37/61/4 36/62/4 39/63/4
f 39/63/5 36/64/5 38/65/5
f 38/65/6 36/66/6 35/67/6
f 37/68/1 39/63/1 38/65/1 35/69/1
usemtl wood.001
f 27/70/7 28/71/7 30/72/7 29/73/7
f 29/73/8 30/72/8 34/55/8 33/52/8
f 33/52/9 34/55/9 32/58/9 31/53/9
f 31/53/10 32/58/10 28/74/10 27/75/10
usemtl Levels.002
f 42/76/1 46/77/1 44/78/1 40/79/1
f 47/80/2 43/81/2 41/82/2 45/83/2
f 48/84/3 49/85/3 50/86/3
f 50/86/4 49/87/4 52/88/4
f 52/88/5 49/89/5 51/90/5
f 51/90/6 49/91/6 48/92/6
f 50/93/1 52/88/1 51/90/1 48/94/1
usemtl wood.002
f 40/95/7 41/96/7 43/97/7 42/98/7
f 42/98/8 43/97/8 47/80/8 46/77/8
f 46/77/9 47/80/9 45/83/9 44/78/9
f 44/78/10 45/83/10 41/99/10 40/100/10
usemtl Levels.003
f 55/101/1 59/102/1 57/103/1 53/104/1
f 60/105/2 56/106/2 54/107/2 58/108/2
f 61/109/3 62/110/3 63/111/3
f 63/111/4 62/112/4 65/113/4
f 65/113/5 62/114/5 64/115/5
f 64/115/6 62/116/6 61/117/6
f 63/118/1 65/113/1 64/115/1 61/119/1
usemtl wood.003
f 53/120/7 54/121/7 56/122/7 55/123/7
f 55/123/8 56/122/8 60/105/8 59/102/8
f 59/102/9 60/105/9 58/108/9 57/103/9
f 57/103/10 58/108/10 54/124/10 53/125/10
usemtl Levels.004
f 68/126/1 72/127/1 70/128/1 66/129/1
f 73/130/2 69/131/2 67/132/2 71/133/2
f 74/134/3 75/135/3 76/136/3
f 76/136/4 75/137/4 78/138/4
f 78/138/5 75/139/5 77/140/5
f 77/140/6 75/141/6 74/142/6
f 76/143/1 78/138/1 77/140/1 74/144/1
usemtl wood.004
f 66/145/7 67/146/7 69/147/7 68/148/7
f 68/148/8 69/147/8 73/130/8 72/127/8
f 72/127/9 73/130/9 71/133/9 70/128/9
f 70/128/10 71/133/10 67/149/10 66/150/10
usemtl Levels.005
f 81/151/1 85/152/1 83/153/1 79/154/1
f 86/155/2 82/156/2 80/157/2 84/158/2
f 87/159/3 88/160/3 89/161/3
f 89/161/4 88/162/4 91/163/4
f 91/163/5 88/164/5 90/165/5
f 90/165/6 88/166/6 87/167/6
f 89/168/1 91/163/1 90/165/1 87/169/1
usemtl wood.005
f 79/170/7 80/171/7 82/172/7 81/173/7
f 81/173/8 82/172/8 86/155/8 85/152/8
f 85/152/9 86/155/9 84/158/9 83/153/9
f 83/153/10 84/158/10 80/174/10 79/175/10
usemtl Levels.006
f 94/176/1 98/177/1 96/178/1 92/179/1
f 99/180/2 95/181/2 93/182/2 97/183/2
f 100/184/3 101/185/3 102/186/3
f 102/186/4 101/187/4 104/188/4
f 104/188/5 101/189/5 103/190/5
f 103/190/6 101/191/6 100/192/6
f 102/193/1 104/188/1 103/190/1 100/194/1
usemtl wood.006
f 92/195/7 93/196/7 95/197/7 94/198/7
f 94/198/8 95/197/8 99/180/8 98/177/8
f 98/177/9 99/180/9 97/183/9 96/178/9
f 96/178/10 97/183/10 93/199/10 92/200/10
usemtl Levels.007
f 107/201/1 111/202/1 109/203/1 105/204/1
f 112/205/2 108/206/2 106/207/2 110/208/2
f 113/209/3 114/210/3 115/211/3
f 115/211/4 114/212/4 117/213/4
f 117/213/5 114/214/5 116/215/5
f 116/215/6 114/216/6 113/217/6
f 115/218/1 117/213/1 116/215/1 113/219/1
usemtl wood.007
f 105/220/7 106/221/7 108/222/7 107/223/7
f 107/223/8 108/222/8 112/205/8 111/202/8
f 111/202/9 112/205/9 110/208/9 109/203/9
f 109/203/10 110/208/10 106/224/10 105/225/10
usemtl Levels.008
f 120/226/1 124/227/1 122/228/1 118/229/1
f 125/230/2 121/231/2 119/232/2 123/233/2
f 126/234/3 127/235/3 128/236/3
f 128/236/4 127/237/4 130/238/4
f 130/238/5 127/239/5 129/240/5
f 129/240/6 127/241/6 126/242/6
f 128/243/1 130/238/1 129/240/1 126/244/1
usemtl wood.008
f 118/245/7 119/246/7 121/247/7 120/248/7
f 120/248/8 121/247/8 125/230/8 124/227/8
f 124/227/9 125/230/9 123/233/9 122/228/9
f 122/228/10 123/233/10 119/249/10 118/250/10
